# AST/ASF file generated using VICON BodyLanguage
# -----------------------------------------------
:version 1.10
:name VICON
:units
  mass 1.0
  length 0.45
  angle deg
:documentation
   .ast/.asf automatically generated from VICON data using
   VICON BodyBuilder and BodyLanguage model FoxedUp or BRILLIANT.MOD
:root
   order TX TY TZ RX RY RZ
   axis XYZ
   position 0 0 0  
   orientation 0 0 0 
:bonedata
  begin
     id 1 
     name lhipjoint
     direction 0.646657 -0.683706 0.338203 
     length 2.4948 
     axis 0 0 0  XYZ
  end
  begin
     id 2 
     name lfemur
     direction 0.34202 -0.939693 0  
     length 6.79491  
     axis 0 0 20  XYZ
    dof rx ry rz
    limits (-160.0 20.0)
           (-70.0 70.0)
           (-60.0 70.0)
  end
  begin
     id 3 
     name ltibia
     direction 0.34202 -0.939693 0   
     length 7.56807   
     axis 0 0 20   XYZ
    dof rx
    limits (-10.0 170.0)
  end
  begin
     id 4 
     name lfoot
     direction 0.0679796 -0.186772 0.980048   
     length 2.53018   
     axis -90 7.62852e-016 20   XYZ
    dof rx rz
    limits (-45.0 90.0)
           (-70.0 20.0)
  end
  begin
     id 5 
     name ltoes
     direction 1.53625e-011 -4.21881e-011 1   
     length 1.26912   
     axis -90 7.62852e-016 20   XYZ
    dof rx
    limits (-90.0 20.0)
  end
  begin
     id 6 
     name rhipjoint
     direction -0.618868 -0.704065 0.348274   
     length 2.42265  
     axis 0 0 0  XYZ 
  end
  begin
     id 7 
     name rfemur
     direction -0.34202 -0.939693 0   
     length 6.73814   
     axis 0 0 -20   XYZ
    dof rx ry rz
    limits (-160.0 20.0)
           (-70.0 70.0)
           (-70.0 60.0)
  end
  begin
     id 8 
     name rtibia
     direction -0.34202 -0.939693 0   
     length 7.66799   
     axis 0 0 -20   XYZ
    dof rx
    limits (-10.0 170.0)
 end
 begin
     id 9 
     name rfoot
     direction -0.0727352 -0.199838 0.977125   
     length 2.57224  
     axis -90 -7.62852e-016 -20   XYZ
    dof rx rz
    limits (-45.0 90.0)
           (-20.0 70.0)
  end
  begin
     id 10 
     name rtoes
     direction -1.53501e-011 -4.21858e-011 1   
     length 1.28858   
     axis -90 -7.62852e-016 -20   XYZ
    dof rx
    limits (-90.0 20.0)
  end
  begin
     id 11 
     name lowerback
     direction -0.0172471 0.995767 -0.0902851   
     length 2.20206   
     axis 0 0 0   XYZ
    dof rx ry rz
    limits (-20.0 45.0)
           (-30.0 30.0)
           (-30.0 30.0)
  end
  begin
     id 12 
     name upperback
     direction -0.000110737 0.999714 0.0239043   
     length 2.19523   
     axis 0 0 0   XYZ
    dof rx ry rz
    limits (-20.0 45.0)
           (-30.0 30.0)
           (-30.0 30.0)
  end
  begin
     id 13 
     name thorax
     direction 0.00704869 0.997783 0.0661741   
     length 2.21977   
     axis 0 0 0   XYZ
    dof rx ry rz
    limits (-20.0 45.0)
           (-30.0 30.0)
           (-30.0 30.0)
  end
  begin
     id 14 
     name lowerneck
     direction -0.00407501 0.995527 0.0943846   
     length 1.83142   
     axis 0 0 0   XYZ
    dof rx ry rz
    limits (-20.0 45.0)
           (-30.0 30.0)
           (-30.0 30.0)
  end
  begin
     id 15 
     name upperneck
     direction 0.0640586 0.986486 -0.150807   
     length 1.84616   
     axis 0 0 0   XYZ
    dof rx ry rz
    limits (-20.0 45.0)
           (-30.0 30.0)
           (-30.0 30.0)
  end
  begin
     id 16
     name head
     direction 0.0188017 0.99791 -0.0618239  
     length 1.85932  
     axis 0 0 0   XYZ
    dof rx ry rz
    limits (-20.0 45.0)
           (-30.0 30.0)
           (-30.0 30.0)
  end
  begin
     id 17 
     name lclavicle
     direction 0.976074 0.206905 0.066852  
     length 3.81043  
     axis 0 0 0   XYZ
    dof ry rz
    limits (-20.0 10.0)
           (0.0 20.0)
  end
  begin
     id 18 
     name lhumerus
     direction 1 -4.48971e-011 1.86916e-027   
     length 5.37587   
     axis 180 -30 -90   XYZ
    dof rx ry rz
    limits (-60.0 90.0)
           (-90.0 90.0)
           (-90.0 90.0)
  end
  begin
     id 19
     name lradius
     direction 1 -4.48968e-011 1.69187e-027   
     length 3.35977   
     axis 180 -30 -90   XYZ
    dof rx
    limits (-10.0 170.0)
  end
  begin
     id 20
     name lwrist
     direction 1 -4.48968e-011 5.8978e-027   
     length 1.67988   
     axis -3.27506e-015 90 90   XYZ
    dof ry
    limits (-180.0 0.0)
 end
  begin
     id 21 
     name lhand
     direction 1 -4.49028e-011 1.18071e-026   
     length 0.561859   
     axis -7.52654e-015 90 90   XYZ
    dof rx rz
    limits (-90.0 90.0)
           (-45.0 45.0)
  end
  begin
     id 22 
     name lfingers
     direction 1 -4.48927e-011 2.35758e-026   
     length 0.452985   
     axis -1.50534e-014 90 90   XYZ
    dof rx
    limits (0.0 90.0)
  end
  begin
     id 23
     name lthumb
     direction 0.707107 -6.34898e-011 0.707107   
     length 0.650399   
     axis -90 45 5.69224e-014   XYZ
    dof rx rz
    limits (-45.0 45.0)
           (-45.0 45.0)
  end
  begin
     id 24 
     name rclavicle
     direction -0.988403 0.151789 0.00439714   
     length 3.6942  
     axis 0 0 0   XYZ 
    dof ry rz
    limits (-10.0 20.0)
           (-20.0 0.0)
  end
  begin
     id 25 
     name rhumerus
     direction -1 -4.48978e-011 1.62495e-027  
     length 5.22819   
     axis 180 30 90   XYZ
    dof rx ry rz
    limits (-90.0 60.0)
           (-90.0 90.0)
           (-90.0 90.0)
  end
  begin
     id 26 
     name rradius
     direction -1 -4.48961e-011 3.47796e-027   
     length 3.40764   
     axis 180 30 90   XYZ
    dof rx
    limits (-10.0 170.0)
  end
  begin
     id 27 
     name rwrist
     direction -1 -4.48949e-011 5.89602e-027   
     length 1.70382   
     axis -3.27506e-015 -90 -90   XYZ
    dof ry
    limits (-180.0 0.0)
  end
  begin
     id 28
     name rhand
     direction -1 -4.48977e-011 1.17973e-026   
     length 0.583255   
     axis -7.52654e-015 -90 -90   XYZ
    dof rx rz
    limits (-90.0 90.0)
           (-45.0 45.0)
  end
  begin
     id 29
     name rfingers
     direction -1 -4.49099e-011 2.36408e-026   
     length 0.470235   
     axis -1.50534e-014 -90 -90   XYZ
    dof rx
    limits (0.0 90.0)
  end
  begin
     id 30
     name rthumb
     direction -0.707107 -6.35011e-011 0.707107   
     length 0.675167   
     axis -90 -45 -5.69224e-014   XYZ
    dof rx rz
    limits (-45.0 45.0)
           (-45.0 45.0)
  end
:hierarchy
  begin
    root lhipjoint rhipjoint lowerback
    lhipjoint lfemur
    lfemur ltibia
    ltibia lfoot
    lfoot ltoes
    rhipjoint rfemur
    rfemur rtibia
    rtibia rfoot
    rfoot rtoes
    lowerback upperback
    upperback thorax
    thorax lowerneck lclavicle rclavicle
    lowerneck upperneck
    upperneck head
    lclavicle lhumerus
    lhumerus lradius
    lradius lwrist
    lwrist lhand lthumb
    lhand lfingers
    rclavicle rhumerus
    rhumerus rradius
    rradius rwrist
    rwrist rhand rthumb
    rhand rfingers
  end

#!OML:ASF G:\JayActor3\Patient Classification 1\Patient 1\Session 2\male.ASF
:FULLY-SPECIFIED
:DEGREES
208
root 47.2331 15.8151 -7.03238 234.242 -83.8127 -222.992
lowerback 0.372506 -1.03072 -6.69382
upperback -1.46285 -1.54536 -2.07028
thorax -1.60362 -0.721152 1.64125
lowerneck -9.8845 -0.220242 -0.997135
upperneck -3.91647 -0.442287 9.02305
head 0.492558 -0.213134 3.06265
rclavicle 5.76476e-015 5.96354e-015
rhumerus -40.9544 17.4302 -98.7075
rradius 46.4105
rwrist -7.42917
rhand -31.277 0.467364
rfingers 7.12502
rthumb -4.55057 -29.4638
lclavicle 5.76476e-015 5.96354e-015
lhumerus -28.4679 -5.17267 92.8591
lradius 19.2842
lwrist 13.7014
lhand -28.4214 25.7377
lfingers 7.12502
lthumb -1.79292 55.7099
rfemur -42.3769 2.83055 17.0926
rtibia 83.4423
rfoot -25.7364 -5.63984
rtoes -9.82334
lfemur -1.93581 15.9624 -28.0004
ltibia 20.2476
lfoot -28.9998 4.49826
ltoes -20.958
209
root 47.127 15.7905 -7.02014 236.302 -83.6955 -224.813
lowerback 0.531 -1.18395 -6.88867
upperback -1.46415 -1.77324 -2.19474
thorax -1.67579 -0.832892 1.62798
lowerneck -9.73817 -0.094011 -0.952145
upperneck -4.40039 -0.253989 9.00834
head 0.300649 -0.143141 3.05328
rclavicle 2.78299e-015 -3.29983e-014
rhumerus -40.5699 16.1821 -98.1133
rradius 44.5328
rwrist -7.58241
rhand -30.572 0.209299
rfingers 7.12502
rthumb -3.86979 -29.7353
lclavicle 2.78299e-015 -3.29983e-014
lhumerus -27.9129 -7.45756 94.1952
lradius 21.0152
lwrist 14.8487
lhand -28.2771 25.6644
lfingers 7.12502
lthumb -1.65353 55.6378
rfemur -44.556 2.85813 17.0319
rtibia 85.2202
rfoot -25.5955 -5.74471
rtoes -9.42538
lfemur -1.44711 16.0337 -28.2476
ltibia 19.5892
lfoot -28.8495 4.29872
ltoes -20.758
210
root 47.0161 15.768 -7.00855 238.406 -83.6466 -226.666
lowerback 0.675939 -1.33801 -7.04583
upperback -1.45008 -1.99854 -2.28432
thorax -1.72397 -0.944002 1.62973
lowerneck -9.58536 0.0107789 -0.92049
upperneck -4.92892 -0.0908563 8.98119
head 0.0952561 -0.0876767 3.04148
rclavicle 1.82882e-014 -1.59028e-015
rhumerus -40.2481 14.8796 -97.431
rradius 42.649
rwrist -7.69169
rhand -29.8876 -0.00118613
rfingers 7.12502
rthumb -3.20889 -29.9568
lclavicle 1.82882e-014 -1.59028e-015
lhumerus -27.427 -9.84127 95.4586
lradius 23.279
lwrist 16.2139
lhand -27.9264 25.3799
lfingers 7.12502
lthumb -1.31485 55.3556
rfemur -46.6876 2.80306 17.0379
rtibia 86.6806
rfoot -25.4969 -5.99607
rtoes -8.98528
lfemur -0.931319 15.9909 -28.4449
ltibia 18.8857
lfoot -28.64 4.16241
ltoes -20.4408
211
root 46.9005 15.7467 -6.99721 240.553 -83.6409 -228.568
lowerback 0.820954 -1.48471 -7.17476
upperback -1.41678 -2.2115 -2.34919
thorax -1.75268 -1.04964 1.64134
lowerneck -9.42323 0.095588 -0.89862
upperneck -5.50322 0.0481594 8.95833
head -0.124573 -0.0464036 3.03277
rclavicle 1.68967e-015 -7.15625e-015
rhumerus -40.0142 13.5732 -96.6887
rradius 40.7953
rwrist -7.74561
rhand -29.2791 -0.16154
rfingers 7.12502
rthumb -2.62123 -30.1252
lclavicle 1.68967e-015 -7.15625e-015
lhumerus -26.9535 -12.1674 96.5676
lradius 25.9628
lwrist 17.6532
lhand -27.4338 24.9265
lfingers 7.12502
lthumb -0.839024 54.9046
rfemur -48.7488 2.67653 17.0901
rtibia 87.8316
rfoot -25.4173 -6.32151
rtoes -8.5369
lfemur -0.359545 15.8591 -28.6066
ltibia 18.1224
lfoot -28.3695 4.07989
ltoes -20.0091
212
root 46.7803 15.7257 -6.98573 242.645 -83.662 -230.436
lowerback 0.976262 -1.61453 -7.27344
upperback -1.36199 -2.40029 -2.39764
thorax -1.76677 -1.14402 1.65315
lowerneck -9.26202 0.15984 -0.877997
upperneck -6.09157 0.159576 8.9444
head -0.34699 -0.0198165 3.02749
rclavicle -7.15625e-015 -1.03368e-014
rhumerus -39.8904 12.3076 -95.915
rradius 38.9995
rwrist -7.7091
rhand -28.7727 -0.280406
rfingers 7.12502
rthumb -2.13216 -30.2495
lclavicle -7.15625e-015 -1.03368e-014
lhumerus -26.4539 -14.3957 97.5001
lradius 28.922
lwrist 19.0165
lhand -26.9013 24.1776
lfingers 7.12502
lthumb -0.324797 54.1571
rfemur -50.7162 2.5039 17.1802
rtibia 88.6838
rfoot -25.3433 -6.67249
rtoes -8.11739
lfemur 0.294699 15.6732 -28.7325
ltibia 17.2904
lfoot -28.0444 4.02749
ltoes -19.4535
213
root 46.656 15.7035 -6.97399 244.656 -83.684 -232.254
lowerback 1.14797 -1.72161 -7.36032
upperback -1.28808 -2.5586 -2.43813
thorax -1.77248 -1.22373 1.66677
lowerneck -9.10095 0.203779 -0.853362
upperneck -6.67306 0.242567 8.94621
head -0.565672 -0.00769347 3.02716
rclavicle -2.0276e-014 -1.11319e-014
rhumerus -39.8875 11.1247 -95.1292
rradius 37.2824
rwrist -7.57817
rhand -28.3156 -0.359755
rfingers 7.12502
rthumb -1.69068 -30.3328
lclavicle -2.0276e-014 -1.11319e-014
lhumerus -25.8992 -16.5081 98.2471
lradius 32.0569
lwrist 20.1623
lhand -26.3941 23.2268
lfingers 7.12502
lthumb 0.165136 53.2064
rfemur -52.5854 2.30599 17.2816
rtibia 89.261
rfoot -25.2771 -6.99211
rtoes -7.73446
lfemur 1.0398 15.4702 -28.8396
ltibia 16.3865
lfoot -27.6729 3.98864
ltoes -18.7927
214
root 46.5279 15.6791 -6.96217 246.624 -83.6853 -234.06
lowerback 1.34112 -1.80473 -7.45956
upperback -1.2023 -2.68677 -2.47595
thorax -1.77955 -1.28839 1.69038
lowerneck -8.93816 0.229226 -0.829344
upperneck -7.22282 0.299632 8.96686
head -0.773361 -0.00766757 3.03379
rclavicle 2.37548e-014 -6.36111e-015
rhumerus -40.0112 10.074 -94.3549
rradius 35.664
rwrist -7.34799
rhand -27.8497 -0.497121
rfingers 7.12502
rthumb -1.24079 -30.4733
lclavicle 2.37548e-014 -6.36111e-015
lhumerus -25.2762 -18.5171 98.8208
lradius 35.2785
lwrist 20.9805
lhand -25.9537 22.1936
lfingers 7.12502
lthumb 0.590415 52.1725
rfemur -54.3551 2.10331 17.3639
rtibia 89.5846
rfoot -25.2171 -7.24611
rtoes -7.39192
lfemur 1.87853 15.282 -28.9441
ltibia 15.4108
lfoot -27.2669 3.94637
ltoes -18.1197
215
root 46.3963 15.6515 -6.95085 248.594 -83.6439 -235.899
lowerback 1.55407 -1.86244 -7.60074
upperback -1.11016 -2.78442 -2.51622
thorax -1.79179 -1.33742 1.735
lowerneck -8.77182 0.23777 -0.813566
upperneck -7.72752 0.333795 9.01427
head -0.96647 -0.0175142 3.05148
rclavicle -5.1684e-015 2.70347e-014
rhumerus -40.2649 9.1834 -93.6096
rradius 34.1533
rwrist -7.01402
rhand -27.3225 -0.681235
rfingers 7.12502
rthumb -0.731577 -30.6597
lclavicle -5.1684e-015 2.70347e-014
lhumerus -24.5757 -20.4326 99.2319
lradius 38.5191
lwrist 21.3914
lhand -25.6268 21.1517
lfingers 7.12502
lthumb 0.906229 51.1295
rfemur -56.0307 1.91424 17.3953
rtibia 89.6804
rfoot -25.1725 -7.40501
rtoes -7.0578
lfemur 2.81246 15.1474 -29.0602
ltibia 14.3605
lfoot -26.8368 3.8745
ltoes -17.5657
216
root 46.2613 15.6198 -6.94035 250.623 -83.5472 -237.821
lowerback 1.78064 -1.89883 -7.80247
upperback -1.01618 -2.85777 -2.5608
thorax -1.80907 -1.37374 1.80883
lowerneck -8.60722 0.231785 -0.807799
upperneck -8.17124 0.347958 9.08218
head -1.13919 -0.034806 3.0782
rclavicle 2.87244e-014 3.18055e-014
rhumerus -40.6398 8.47952 -92.9104
rradius 32.7535
rwrist -6.56937
rhand -26.6793 -0.900141
rfingers 7.12502
rthumb -0.110343 -30.8799
lclavicle 2.87244e-014 3.18055e-014
lhumerus -23.7938 -22.2679 99.4936
lradius 41.7377
lwrist 21.4235
lhand -25.4333 20.2504
lfingers 7.12502
lthumb 1.09311 50.2273
rfemur -57.6217 1.75023 17.3479
rtibia 89.5699
rfoot -25.1445 -7.45392
rtoes -6.74368
lfemur 3.84196 15.0689 -29.1998
ltibia 13.2254
lfoot -26.388 3.77112
ltoes -17.2509
217
root 46.1228 15.5844 -6.93089 252.752 -83.4001 -239.866
lowerback 2.01935 -1.92084 -8.06557
upperback -0.923814 -2.9165 -2.60501
thorax -1.833 -1.402 1.91724
lowerneck -8.4498 0.213778 -0.809101
upperneck -8.54717 0.344629 9.15289
head -1.28836 -0.0576111 3.10705
rclavicle -3.15074e-014 4.92986e-014
rhumerus -41.1323 7.96906 -92.2638
rradius 31.479
rwrist -6.01732
rhand -25.8799 -1.13553
rfingers 7.12502
rthumb 0.661748 -31.1142
lclavicle -3.15074e-014 4.92986e-014
lhumerus -22.9298 -24.0182 99.6146
lradius 44.8942
lwrist 21.1414
lhand -25.3726 19.5214
lfingers 7.12502
lthumb 1.15173 49.498
rfemur -59.1215 1.61222 17.212
rtibia 89.2656
rfoot -25.1325 -7.38836
rtoes -6.44687
lfemur 4.97905 15.0207 -29.3583
ltibia 11.9844
lfoot -25.8976 3.65366
ltoes -17.2943
218
root 45.9803 15.5456 -6.92253 254.939 -83.2195 -241.987
lowerback 2.26463 -1.93205 -8.37092
upperback -0.829603 -2.96405 -2.64339
thorax -1.85702 -1.42434 2.05495
lowerneck -8.31614 0.187403 -0.825202
upperneck -8.85659 0.328636 9.22651
head -1.41167 -0.082947 3.13934
rclavicle 3.24019e-014 7.95139e-016
rhumerus -41.728 7.63875 -91.6722
rradius 30.3475
rwrist -5.39308
rhand -24.9103 -1.34356
rfingers 7.12502
rthumb 1.59821 -31.3173
lclavicle 3.24019e-014 7.95139e-016
lhumerus -21.977 -25.6814 99.5988
lradius 47.9655
lwrist 20.6439
lhand -25.3543 19.0872
lfingers 7.12502
lthumb 1.16936 49.0638
rfemur -60.5227 1.50447 16.9968
rtibia 88.7731
rfoot -25.1237 -7.24749
rtoes -6.25849
lfemur 6.24685 14.9703 -29.5176
ltibia 10.5978
lfoot -25.3572 3.5396
ltoes -17.7891
219
root 45.8338 15.5047 -6.9153 257.216 -83.038 -244.212
lowerback 2.51337 -1.94033 -8.68597
upperback -0.734798 -3.00914 -2.66557
thorax -1.88073 -1.44523 2.21482
lowerneck -8.20143 0.156282 -0.848843
upperneck -9.11928 0.304581 9.28734
head -1.51635 -0.109361 3.16833
rclavicle -5.32743e-014 -4.6118e-014
rhumerus -42.4226 7.4631 -91.1296
rradius 29.3844
rwrist -4.73278
rhand -23.774 -1.49883
rfingers 7.12502
rthumb 2.69559 -31.4615
lclavicle -5.32743e-014 -4.6118e-014
lhumerus -20.9428 -27.2602 99.4552
lradius 50.9322
lwrist 20.0597
lhand -25.3988 18.8678
lfingers 7.12502
lthumb 1.12638 48.8446
rfemur -61.8155 1.42258 16.7247
rtibia 88.0955
rfoot -25.1059 -7.07195
rtoes -6.28331
lfemur 7.66524 14.5251 -29.6971
ltibia 8.99667
lfoot -24.7393 3.77884
ltoes -18.6505
